# xmcd
#
# Track frame offsets: 
#        182
#        26885
#        49850
#        81622
#        115680
#        129802
#        141930
#        174865
#        199815
#        236662
#
# Disc length: 3490 seconds
#
# Revision: 1
# Processed by: cddbd v1.5.2PL0 Copyright (c) Steve Scherf et al.
# Submitted via: ExactAudioCopyFreeDBPlugin 1.0
#
DISCID=870da00a
DTITLE=Cooder, Ry - Live USA
DYEAR=1900
DGENRE=Blues
TTITLE0=Let's Have A Ball
TTITLE1=Jesus On The Mainline
TTITLE2=The Very Thing That Made You Rich Done Made No Poor
TTITLE3=Down In Mississippi
TTITLE4=Just A Little Bit
TTITLE5=Jesus Hits Like The Atom Bomb
TTITLE6=Crazy 'bout An Automobile
TTITLE7=Chain Gang
TTITLE8=Goodnight Irene
TTITLE9=Crawling King Snake
EXTD=
EXTT0=
EXTT1=
EXTT2=
EXTT3=
EXTT4=
EXTT5=
EXTT6=
EXTT7=
EXTT8=
EXTT9=
PLAYORDER=
